<?xml version="1.0" standalone="no"?>
<!DOCTYPE svg PUBLIC "-//W3C//DTD SVG 20010904//EN"
 "http://www.w3.org/TR/2001/REC-SVG-20010904/DTD/svg10.dtd">
<svg version="1.0" xmlns="http://www.w3.org/2000/svg"
 width="700.000000pt" height="700.000000pt" viewBox="0 0 700.000000 700.000000"
 preserveAspectRatio="xMidYMid meet">
<metadata>
Created by potrace 1.14, written by Peter Selinger 2001-2017
</metadata>
<g transform="translate(0.000000,700.000000) scale(0.100000,-0.100000)"
fill="#000000" stroke="none">
<path d="M3360 6281 c-99 -27 -168 -67 -240 -140 -70 -70 -109 -139 -139 -244
-77 -268 -287 -425 -551 -412 -96 4 -168 26 -263 79 -35 20 -86 43 -113 51
-324 100 -669 -139 -691 -478 -7 -108 14 -194 75 -310 61 -116 74 -162 78
-263 5 -130 -33 -249 -110 -349 -71 -92 -151 -146 -284 -190 -148 -49 -191
-73 -265 -146 -75 -75 -127 -171 -145 -269 -10 -53 -9 -194 1 -235 35 -135
117 -253 224 -321 28 -18 103 -51 168 -73 125 -43 192 -80 252 -141 58 -59 70
-75 103 -140 43 -85 60 -171 56 -271 -5 -95 -17 -136 -81 -264 -61 -121 -75
-179 -71 -290 10 -277 234 -500 512 -511 110 -4 189 16 296 74 116 63 168 77
288 76 83 0 118 -5 169 -23 165 -58 290 -187 340 -352 61 -201 142 -309 284
-377 93 -45 123 -53 222 -57 108 -5 167 7 260 49 132 61 254 207 277 331 7 39
54 149 82 191 73 110 191 194 317 227 56 14 187 16 259 2 19 -3 82 -30 140
-59 58 -30 138 -62 178 -71 256 -63 535 98 626 360 23 68 31 187 17 260 -7 33
-37 110 -67 170 -68 139 -82 196 -79 310 3 122 29 199 98 293 73 100 156 161
267 197 172 56 240 93 313 175 179 199 180 520 2 718 -76 84 -147 125 -305
174 -235 73 -386 287 -376 532 5 108 9 123 72 251 105 216 111 345 25 520 -64
128 -168 222 -306 275 -48 19 -80 24 -165 24 -118 1 -173 -13 -278 -71 -133
-73 -277 -97 -407 -69 -81 18 -191 76 -248 132 -83 80 -120 146 -167 299 -72
232 -275 377 -524 374 -33 0 -90 -8 -126 -18z m319 -1748 c218 -37 401 -133
561 -293 159 -159 252 -335 294 -560 14 -72 16 -297 3 -346 -3 -12 -8 -37 -11
-55 -15 -95 -84 -258 -153 -362 -58 -87 -196 -227 -278 -282 -183 -122 -375
-181 -588 -183 -281 -2 -537 101 -736 297 -127 125 -186 213 -252 376 -56 140
-85 400 -58 524 4 20 10 52 13 71 7 49 42 150 77 226 116 255 367 474 633 554
53 16 111 29 191 43 51 9 228 4 304 -10z"/>
</g>
</svg>
